<svg xmlns="http://www.w3.org/2000/svg" xmlns:xlink="http://www.w3.org/1999/xlink" x="0px" y="0px" width="80px" height="16px" viewBox="0 0 80 16"><g  transform="translate(0, 0)">
<path fill="#ffffff" d="M8,0C3.582,0,0,3.582,0,8c0,4.418,3.582,8,8,8c4.418,0,8-3.582,8-8
			C16,3.582,12.418,0,8,0z M8,14c-3.314,0-6-2.686-6-6c0-3.314,2.686-6,6-6c3.314,0,6,2.686,6,6C14,11.314,11.314,14,8,14z M4,9h8V7
			H4V9z"/>

</g><g  transform="translate(16, 0)">
<path fill="#ffffff" d="M7,4V0L0,6l7,5V7c6.369,0,9,9,9,9C16,3.664,7,4,7,4z"/>
</g><g  transform="translate(32, 0)">
<path fill="#ffffff" d="M16,12c0-1.634-1.962-3.037-4.77-3.658C11.709,7.683,12,6.878,12,6V4
			c0-2.209-1.791-4-4-4C5.791,0,4,1.791,4,4v2c0,0.878,0.291,1.683,0.77,2.342C1.962,8.963,0,10.366,0,12
			c0,0.351,0.1,0.69,0.27,1.014C0.103,13.306,0,13.64,0,14c0,1.105,0.895,2,2,2h12c1.105,0,2-0.895,2-2
			c0-0.36-0.103-0.694-0.27-0.986C15.9,12.69,16,12.351,16,12z M6,4c0-1.105,0.895-2,2-2c1.105,0,2,0.895,2,2v2c0,1.105-0.895,2-2,2
			C6.895,8,6,7.105,6,6V4z M14,14H2v-2c0-1.105,2.686-2,6-2s6,0.895,6,2V14z"/>
<rect data-color="color-2" x="6" y="6" fill="#ffffff" width="4" height="2"/>
</g><g  transform="translate(48, 0)">
<circle data-color="color-2" fill="#ffffff" cx="6" cy="8" r="2"/>
<path fill="#ffffff" d="M14,14c0,0.552-0.448,1-1,1H3c-0.552,0-1-0.448-1-1V4c0-0.552,0.448-1,1-1
			h3l3.333-2H2C0.895,1,0,1.895,0,3v12c0,1.105,0.895,2,2,2h12c1.105,0,2-0.895,2-2V6.75l-2,1.5V14z M10.984,2.96
			c-0.01,0.101-0.015,0.084-0.017-0.006c-0.493-0.004-6.712,0.49-6.971,8.137c0.074,0.383,1.341-5.049,7.002-6.172C11,5,11,7,11,7
			l5-3l-5-3c0.016-0.01-0.038,1.59-0.033,1.954C11.004,2.955,11.017,2.957,10.984,2.96z M4.013,10.714
			c-0.015,0.174-0.016,0.275-0.016,0.275C3.998,10.892,4.011,10.809,4.013,10.714z"/>
</g><g  transform="translate(64, 0)">
<path fill="#ffffff" d="M14,4h-1.101C12.436,1.718,10.419,0,8,0C5.581,0,3.564,1.718,3.101,4H2
			C0.895,4,0,4.895,0,6v8c0,1.105,0.895,2,2,2h12c1.105,0,2-0.895,2-2V6C16,4.895,15.105,4,14,4z M8,2c1.304,0,2.403,0.837,2.816,2
			H5.184C5.597,2.837,6.696,2,8,2z M14,13c0,0.552-0.448,1-1,1H3c-0.552,0-1-0.448-1-1V7c0-0.552,0.448-1,1-1h10
			c0.552,0,1,0.448,1,1V13z M8.5,8h-1C6.672,8,6,8.672,6,9.5S6.672,11,7.5,11H7v1h2v-1H8.5c0.828,0,1.5-0.672,1.5-1.5S9.328,8,8.5,8
			z"/>


</g></svg>